<svg width="128" height="21" viewBox="0 0 128 21" fill="none" xmlns="http://www.w3.org/2000/svg">
<path d="M6.8125 12.457C6.8125 12.5898 6.875 12.6797 7 12.7266C7.1875 12.5156 7.45312 12.332 7.79688 12.1758C8.14062 12.0117 8.52734 11.9297 8.95703 11.9297C9.77734 11.9297 10.457 12.1719 10.9961 12.6562C10.9961 12.6562 11.0234 12.6797 11.0781 12.7266C11.1797 12.6719 11.2305 12.5742 11.2305 12.4336C11.2305 12.1914 11.0391 11.9609 10.6562 11.7422C10.2109 11.5 9.64062 11.3789 8.94531 11.3789C8.75781 11.3789 8.58594 11.3945 8.42969 11.4258V8.36719C8.42969 8.03125 8.3125 7.86328 8.07812 7.86328C7.85156 7.86328 7.73828 8.03516 7.73828 8.37891V11.5898C7.12109 11.8398 6.8125 12.1289 6.8125 12.457ZM7.77344 18.0117C6.42188 18.0117 5.19531 17.7578 4.09375 17.25C2.99219 16.7344 2.11328 15.9414 1.45703 14.8711C0.722656 13.6602 0.355469 12.1523 0.355469 10.3477C0.355469 8.54297 0.730469 7.02344 1.48047 5.78906C2.15234 4.67969 3.0625 3.85547 4.21094 3.31641C5.36719 2.77734 6.60938 2.50781 7.9375 2.50781C10.3594 2.50781 12.2578 3.21875 13.6328 4.64062C15.0156 6.05469 15.707 7.90625 15.707 10.1953C15.707 11.5938 15.4102 12.8203 14.8164 13.875H16.5156C16.7969 14.7188 16.9375 15.5156 16.9375 16.2656C16.9375 17.4062 16.6211 18.3242 15.9883 19.0195C15.3555 19.7148 14.4727 20.0625 13.3398 20.0625C12.207 20.0625 11.2656 19.6875 10.5156 18.9375C9.77344 18.1953 9.16797 17.0195 8.69922 15.4102H8.64062C8.39062 15.4102 8.26562 15.5352 8.26562 15.7852C8.26562 16.2539 8.52734 16.9727 9.05078 17.9414C8.64453 17.9883 8.21875 18.0117 7.77344 18.0117ZM23.4414 12.8906C23.5352 12.8906 23.6367 12.8516 23.7461 12.7734C23.668 12.5156 23.6289 12.1133 23.6289 11.5664V5.77734C24.457 5.27734 25.4531 5.02734 26.6172 5.02734C27.2734 5.02734 27.8477 5.11719 28.3398 5.29688C28.8398 5.46875 29.2227 5.69922 29.4883 5.98828V12.0938C29.4883 13.2578 29.7695 14.0156 30.332 14.3672C30.3398 14.4062 30.3438 14.4805 30.3438 14.5898V14.8008C30.3438 15.9414 30.043 16.8047 29.4414 17.3906C28.8945 17.9375 28.1406 18.2109 27.1797 18.2109C26.5781 18.2109 26.0312 18.0742 25.5391 17.8008C25.0547 17.5273 24.6914 17.1289 24.4492 16.6055C24.1836 16.6055 24.0508 16.7344 24.0508 16.9922C24.0508 17.1719 24.1406 17.3516 24.3203 17.5312C24.0703 17.7344 23.7695 17.8984 23.418 18.0234C23.0664 18.1484 22.5469 18.2109 21.8594 18.2109C21.1797 18.2109 20.5156 18.0703 19.8672 17.7891C19.0625 17.4453 18.4453 16.918 18.0156 16.207C17.4922 15.3633 17.2305 14.293 17.2305 12.9961V10.0547C16.832 9.35938 16.6328 8.59375 16.6328 7.75781C16.6328 7.32812 16.6875 6.88281 16.7969 6.42188C16.9062 5.96094 17.082 5.55078 17.3242 5.19141H19.9023C20.8711 5.19141 21.6289 5.42188 22.1758 5.88281C22.7305 6.33594 23.0078 7.02734 23.0078 7.95703V11.7539C23.0078 12.5117 23.1523 12.8906 23.4414 12.8906ZM36.8945 7.45312V12.0938C36.8945 13.2578 37.1758 14.0156 37.7383 14.3672C37.7461 14.4062 37.75 14.4805 37.75 14.5898V14.8008C37.75 15.9492 37.4375 16.8125 36.8125 17.3906C36.2344 17.9375 35.4609 18.2109 34.4922 18.2109C33.5312 18.2109 32.7383 17.9375 32.1133 17.3906C31.3242 16.6953 30.9297 15.6797 30.9297 14.3438V6.72656C31.0703 6.625 31.2227 6.54297 31.3867 6.48047C31.5508 6.41797 31.7227 6.33984 31.9023 6.24609C31.5664 6.07422 31.2617 5.77734 30.9883 5.35547C30.7148 4.92578 30.5781 4.42578 30.5781 3.85547C30.5781 2.87109 30.9023 2.06641 31.5508 1.44141C32.1992 0.816406 32.9922 0.503906 33.9297 0.503906C34.875 0.503906 35.6641 0.824219 36.2969 1.46484C36.9375 2.09766 37.2578 2.89453 37.2578 3.85547C37.2578 4.62891 37.0156 5.30859 36.5312 5.89453C36.0469 6.47266 35.457 6.83594 34.7617 6.98438C34.7617 7.28125 34.875 7.42969 35.1016 7.42969C35.5 7.42969 35.9062 7.27344 36.3203 6.96094C36.6328 7.20312 36.8242 7.36719 36.8945 7.45312ZM44.5703 18.3633C42.5391 18.3633 40.918 17.7383 39.707 16.4883C38.5039 15.2305 37.9023 13.5469 37.9023 11.4375C37.9023 9.32812 38.5859 7.66016 39.9531 6.43359C41.1719 5.33984 42.6953 4.79297 44.5234 4.79297C46.1484 4.79297 47.4961 5.19531 48.5664 6C49.6367 6.79688 50.1719 7.88281 50.1719 9.25781C50.1719 10.2109 49.875 10.9883 49.2812 11.5898C48.6953 12.1836 47.9219 12.4805 46.9609 12.4805C46.1797 12.4805 45.5273 12.2734 45.0039 11.8594C44.4883 11.4375 44.1836 10.8906 44.0898 10.2188C43.7461 10.2188 43.5742 10.3438 43.5742 10.5938C43.5742 11.1641 43.8555 11.6875 44.418 12.1641C45.0664 12.7266 45.8711 13.0078 46.832 13.0078C47.8008 13.0078 48.6016 12.8008 49.2344 12.3867C49.625 12.9883 49.8203 13.7188 49.8203 14.5781C49.8203 15.5781 49.3906 16.4336 48.5312 17.1445C47.5469 17.957 46.2266 18.3633 44.5703 18.3633ZM56.582 13.5938L56.0195 13.8398C56.0195 14.3633 56.1211 14.9219 56.3242 15.5156C56.4961 16.0781 56.7344 16.5781 57.0391 17.0156C56.2656 17.8125 55.1914 18.2109 53.8164 18.2109C53.0273 18.2109 52.3438 18.0039 51.7656 17.5898C51.0938 17.1211 50.7578 16.5 50.7578 15.7266V2.05078C51.1328 1.83203 51.582 1.65234 52.1055 1.51172C52.6367 1.37109 53.1719 1.30078 53.7109 1.30078C54.6094 1.30078 55.3516 1.47656 55.9375 1.82812C56.6016 2.24219 56.9336 2.83594 56.9336 3.60938V4.85156C56.9336 5.89062 56.75 6.90625 56.3828 7.89844C56.3125 8 56.1875 8.14844 56.0078 8.34375C55.8281 8.53125 55.6836 8.70312 55.5742 8.85938C55.4727 9.01562 55.4219 9.15234 55.4219 9.26953C55.4219 9.37891 55.5156 9.48047 55.7031 9.57422C56.3125 9.00391 56.7891 8.38281 57.1328 7.71094C57.4844 7.03906 57.8047 6.14844 58.0938 5.03906C58.1953 5.02344 58.3125 5.00391 58.4453 4.98047C58.5781 4.95703 58.7969 4.92188 59.1016 4.875C59.4141 4.82031 59.6328 4.79297 59.7578 4.79297C60.9609 4.79297 61.8984 5.07031 62.5703 5.625C63.2422 6.17188 63.5781 6.92578 63.5781 7.88672C63.5781 8.84766 63.2734 9.67188 62.6641 10.3594C62.1016 10.9766 61.3711 11.4414 60.4727 11.7539C61.1914 12.1758 62.0977 12.4766 63.1914 12.6562C63.6133 13.4219 63.8242 14.2383 63.8242 15.1055C63.8242 15.9648 63.5508 16.6836 63.0039 17.2617C62.3945 17.8945 61.5508 18.2109 60.4727 18.2109C59.4023 18.2109 58.5195 17.8008 57.8242 16.9805C57.1367 16.1523 56.7227 15.0234 56.582 13.5938ZM65.0781 12.3398C65.7422 11.6758 66.5352 11.3438 67.457 11.3438C68.3789 11.3438 69.1797 11.6758 69.8594 12.3398C70.5234 13.0195 70.8555 13.8242 70.8555 14.7539C70.8555 15.6758 70.5234 16.4688 69.8594 17.1328C69.1875 17.7891 68.3867 18.1172 67.457 18.1172C66.5273 18.1172 65.7305 17.7891 65.0664 17.1328C64.4102 16.4688 64.082 15.6758 64.082 14.7539C64.082 13.8242 64.4141 13.0195 65.0781 12.3398ZM77.6875 12.457C77.6875 12.5898 77.75 12.6797 77.875 12.7266C78.0625 12.5156 78.3281 12.332 78.6719 12.1758C79.0156 12.0117 79.4023 11.9297 79.832 11.9297C80.6523 11.9297 81.332 12.1719 81.8711 12.6562C81.8711 12.6562 81.8984 12.6797 81.9531 12.7266C82.0547 12.6719 82.1055 12.5742 82.1055 12.4336C82.1055 12.1914 81.9141 11.9609 81.5312 11.7422C81.0859 11.5 80.5156 11.3789 79.8203 11.3789C79.6328 11.3789 79.4609 11.3945 79.3047 11.4258V8.36719C79.3047 8.03125 79.1875 7.86328 78.9531 7.86328C78.7266 7.86328 78.6133 8.03516 78.6133 8.37891V11.5898C77.9961 11.8398 77.6875 12.1289 77.6875 12.457ZM78.6484 18.0117C77.2969 18.0117 76.0703 17.7578 74.9688 17.25C73.8672 16.7344 72.9883 15.9414 72.332 14.8711C71.5977 13.6602 71.2305 12.1523 71.2305 10.3477C71.2305 8.54297 71.6055 7.02344 72.3555 5.78906C73.0273 4.67969 73.9375 3.85547 75.0859 3.31641C76.2422 2.77734 77.4844 2.50781 78.8125 2.50781C81.2344 2.50781 83.1328 3.21875 84.5078 4.64062C85.8906 6.05469 86.582 7.90625 86.582 10.1953C86.582 11.5938 86.2852 12.8203 85.6914 13.875H87.3906C87.6719 14.7188 87.8125 15.5156 87.8125 16.2656C87.8125 17.4062 87.4961 18.3242 86.8633 19.0195C86.2305 19.7148 85.3477 20.0625 84.2148 20.0625C83.082 20.0625 82.1406 19.6875 81.3906 18.9375C80.6484 18.1953 80.043 17.0195 79.5742 15.4102H79.5156C79.2656 15.4102 79.1406 15.5352 79.1406 15.7852C79.1406 16.2539 79.4023 16.9727 79.9258 17.9414C79.5195 17.9883 79.0938 18.0117 78.6484 18.0117ZM94.3164 12.8906C94.4102 12.8906 94.5117 12.8516 94.6211 12.7734C94.543 12.5156 94.5039 12.1133 94.5039 11.5664V5.77734C95.332 5.27734 96.3281 5.02734 97.4922 5.02734C98.1484 5.02734 98.7227 5.11719 99.2148 5.29688C99.7148 5.46875 100.098 5.69922 100.363 5.98828V12.0938C100.363 13.2578 100.645 14.0156 101.207 14.3672C101.215 14.4062 101.219 14.4805 101.219 14.5898V14.8008C101.219 15.9414 100.918 16.8047 100.316 17.3906C99.7695 17.9375 99.0156 18.2109 98.0547 18.2109C97.4531 18.2109 96.9062 18.0742 96.4141 17.8008C95.9297 17.5273 95.5664 17.1289 95.3242 16.6055C95.0586 16.6055 94.9258 16.7344 94.9258 16.9922C94.9258 17.1719 95.0156 17.3516 95.1953 17.5312C94.9453 17.7344 94.6445 17.8984 94.293 18.0234C93.9414 18.1484 93.4219 18.2109 92.7344 18.2109C92.0547 18.2109 91.3906 18.0703 90.7422 17.7891C89.9375 17.4453 89.3203 16.918 88.8906 16.207C88.3672 15.3633 88.1055 14.293 88.1055 12.9961V10.0547C87.707 9.35938 87.5078 8.59375 87.5078 7.75781C87.5078 7.32812 87.5625 6.88281 87.6719 6.42188C87.7812 5.96094 87.957 5.55078 88.1992 5.19141H90.7773C91.7461 5.19141 92.5039 5.42188 93.0508 5.88281C93.6055 6.33594 93.8828 7.02734 93.8828 7.95703V11.7539C93.8828 12.5117 94.0273 12.8906 94.3164 12.8906ZM107.77 7.45312V12.0938C107.77 13.2578 108.051 14.0156 108.613 14.3672C108.621 14.4062 108.625 14.4805 108.625 14.5898V14.8008C108.625 15.9492 108.312 16.8125 107.688 17.3906C107.109 17.9375 106.336 18.2109 105.367 18.2109C104.406 18.2109 103.613 17.9375 102.988 17.3906C102.199 16.6953 101.805 15.6797 101.805 14.3438V6.72656C101.945 6.625 102.098 6.54297 102.262 6.48047C102.426 6.41797 102.598 6.33984 102.777 6.24609C102.441 6.07422 102.137 5.77734 101.863 5.35547C101.59 4.92578 101.453 4.42578 101.453 3.85547C101.453 2.87109 101.777 2.06641 102.426 1.44141C103.074 0.816406 103.867 0.503906 104.805 0.503906C105.75 0.503906 106.539 0.824219 107.172 1.46484C107.812 2.09766 108.133 2.89453 108.133 3.85547C108.133 4.62891 107.891 5.30859 107.406 5.89453C106.922 6.47266 106.332 6.83594 105.637 6.98438C105.637 7.28125 105.75 7.42969 105.977 7.42969C106.375 7.42969 106.781 7.27344 107.195 6.96094C107.508 7.20312 107.699 7.36719 107.77 7.45312ZM120.473 8.19141C120.473 8.40234 120.441 8.71094 120.379 9.11719C120.316 9.51562 120.242 9.83594 120.156 10.0781C119.43 11.0781 118.559 11.9219 117.543 12.6094C116.543 12.6562 115.809 12.7578 115.34 12.9141C114.879 13.0703 114.648 13.2461 114.648 13.4414C114.648 13.5664 114.691 13.6602 114.777 13.7227C115.105 13.543 115.559 13.4023 116.137 13.3008C116.715 13.1914 117.27 13.1367 117.801 13.1367H120.062C120.266 13.4883 120.43 13.8828 120.555 14.3203C120.68 14.75 120.742 15.1289 120.742 15.457C120.742 16.3633 120.496 17.0352 120.004 17.4727C119.613 17.8242 119.078 18 118.398 18H110.043C109.348 17.2734 109 16.1406 109 14.6016C109 14.0391 109.102 13.3711 109.305 12.5977C110.016 11.8086 111.023 10.9141 112.328 9.91406C112.586 9.71094 112.875 9.47266 113.195 9.19922C113.148 9.01953 113.043 8.92969 112.879 8.92969C112.848 8.92969 112.793 8.9375 112.715 8.95312C112.488 9.02344 112.016 9.39453 111.297 10.0664H109.844C109.383 9.30859 109.152 8.49609 109.152 7.62891C109.152 7.08203 109.238 6.59766 109.41 6.17578C109.582 5.75391 109.793 5.42578 110.043 5.19141H119.711C120.219 5.93359 120.473 6.93359 120.473 8.19141ZM122.008 12.3398C122.672 11.6758 123.465 11.3438 124.387 11.3438C125.309 11.3438 126.109 11.6758 126.789 12.3398C127.453 13.0195 127.785 13.8242 127.785 14.7539C127.785 15.6758 127.453 16.4688 126.789 17.1328C126.117 17.7891 125.316 18.1172 124.387 18.1172C123.457 18.1172 122.66 17.7891 121.996 17.1328C121.34 16.4688 121.012 15.6758 121.012 14.7539C121.012 13.8242 121.344 13.0195 122.008 12.3398Z" fill="white"/>
</svg>
