<svg width="36" height="36" viewBox="0 0 36 36" fill="none" xmlns="http://www.w3.org/2000/svg">
<rect x="4" y="4" width="30" height="30" rx="15" fill="#060000"/>
<path d="M19 4C10.72 4 4 10.72 4 19C4 27.28 10.72 34 19 34C27.28 34 34 27.28 34 19C34 10.72 27.28 4 19 4ZM19 8.5C21.49 8.5 23.5 10.51 23.5 13C23.5 15.49 21.49 17.5 19 17.5C16.51 17.5 14.5 15.49 14.5 13C14.5 10.51 16.51 8.5 19 8.5ZM19 29.8C15.25 29.8 11.935 27.88 10 24.97C10.045 21.985 16 20.35 19 20.35C21.985 20.35 27.955 21.985 28 24.97C26.065 27.88 22.75 29.8 19 29.8Z" fill="white"/>
</svg>
