<svg width="188" height="68" viewBox="0 0 188 68" fill="none" xmlns="http://www.w3.org/2000/svg">
<path d="M36.8125 34.457C36.8125 34.5898 36.875 34.6797 37 34.7266C37.1875 34.5156 37.4531 34.332 37.7969 34.1758C38.1406 34.0117 38.5273 33.9297 38.957 33.9297C39.7773 33.9297 40.457 34.1719 40.9961 34.6562C40.9961 34.6562 41.0234 34.6797 41.0781 34.7266C41.1797 34.6719 41.2305 34.5742 41.2305 34.4336C41.2305 34.1914 41.0391 33.9609 40.6562 33.7422C40.2109 33.5 39.6406 33.3789 38.9453 33.3789C38.7578 33.3789 38.5859 33.3945 38.4297 33.4258V30.3672C38.4297 30.0312 38.3125 29.8633 38.0781 29.8633C37.8516 29.8633 37.7383 30.0352 37.7383 30.3789V33.5898C37.1211 33.8398 36.8125 34.1289 36.8125 34.457ZM37.7734 40.0117C36.4219 40.0117 35.1953 39.7578 34.0938 39.25C32.9922 38.7344 32.1133 37.9414 31.457 36.8711C30.7227 35.6602 30.3555 34.1523 30.3555 32.3477C30.3555 30.543 30.7305 29.0234 31.4805 27.7891C32.1523 26.6797 33.0625 25.8555 34.2109 25.3164C35.3672 24.7773 36.6094 24.5078 37.9375 24.5078C40.3594 24.5078 42.2578 25.2188 43.6328 26.6406C45.0156 28.0547 45.707 29.9062 45.707 32.1953C45.707 33.5938 45.4102 34.8203 44.8164 35.875H46.5156C46.7969 36.7188 46.9375 37.5156 46.9375 38.2656C46.9375 39.4062 46.6211 40.3242 45.9883 41.0195C45.3555 41.7148 44.4727 42.0625 43.3398 42.0625C42.207 42.0625 41.2656 41.6875 40.5156 40.9375C39.7734 40.1953 39.168 39.0195 38.6992 37.4102H38.6406C38.3906 37.4102 38.2656 37.5352 38.2656 37.7852C38.2656 38.2539 38.5273 38.9727 39.0508 39.9414C38.6445 39.9883 38.2188 40.0117 37.7734 40.0117ZM53.4414 34.8906C53.5352 34.8906 53.6367 34.8516 53.7461 34.7734C53.668 34.5156 53.6289 34.1133 53.6289 33.5664V27.7773C54.457 27.2773 55.4531 27.0273 56.6172 27.0273C57.2734 27.0273 57.8477 27.1172 58.3398 27.2969C58.8398 27.4688 59.2227 27.6992 59.4883 27.9883V34.0938C59.4883 35.2578 59.7695 36.0156 60.332 36.3672C60.3398 36.4062 60.3438 36.4805 60.3438 36.5898V36.8008C60.3438 37.9414 60.043 38.8047 59.4414 39.3906C58.8945 39.9375 58.1406 40.2109 57.1797 40.2109C56.5781 40.2109 56.0312 40.0742 55.5391 39.8008C55.0547 39.5273 54.6914 39.1289 54.4492 38.6055C54.1836 38.6055 54.0508 38.7344 54.0508 38.9922C54.0508 39.1719 54.1406 39.3516 54.3203 39.5312C54.0703 39.7344 53.7695 39.8984 53.418 40.0234C53.0664 40.1484 52.5469 40.2109 51.8594 40.2109C51.1797 40.2109 50.5156 40.0703 49.8672 39.7891C49.0625 39.4453 48.4453 38.918 48.0156 38.207C47.4922 37.3633 47.2305 36.293 47.2305 34.9961V32.0547C46.832 31.3594 46.6328 30.5938 46.6328 29.7578C46.6328 29.3281 46.6875 28.8828 46.7969 28.4219C46.9062 27.9609 47.082 27.5508 47.3242 27.1914H49.9023C50.8711 27.1914 51.6289 27.4219 52.1758 27.8828C52.7305 28.3359 53.0078 29.0273 53.0078 29.957V33.7539C53.0078 34.5117 53.1523 34.8906 53.4414 34.8906ZM66.8945 29.4531V34.0938C66.8945 35.2578 67.1758 36.0156 67.7383 36.3672C67.7461 36.4062 67.75 36.4805 67.75 36.5898V36.8008C67.75 37.9492 67.4375 38.8125 66.8125 39.3906C66.2344 39.9375 65.4609 40.2109 64.4922 40.2109C63.5312 40.2109 62.7383 39.9375 62.1133 39.3906C61.3242 38.6953 60.9297 37.6797 60.9297 36.3438V28.7266C61.0703 28.625 61.2227 28.543 61.3867 28.4805C61.5508 28.418 61.7227 28.3398 61.9023 28.2461C61.5664 28.0742 61.2617 27.7773 60.9883 27.3555C60.7148 26.9258 60.5781 26.4258 60.5781 25.8555C60.5781 24.8711 60.9023 24.0664 61.5508 23.4414C62.1992 22.8164 62.9922 22.5039 63.9297 22.5039C64.875 22.5039 65.6641 22.8242 66.2969 23.4648C66.9375 24.0977 67.2578 24.8945 67.2578 25.8555C67.2578 26.6289 67.0156 27.3086 66.5312 27.8945C66.0469 28.4727 65.457 28.8359 64.7617 28.9844C64.7617 29.2812 64.875 29.4297 65.1016 29.4297C65.5 29.4297 65.9062 29.2734 66.3203 28.9609C66.6328 29.2031 66.8242 29.3672 66.8945 29.4531ZM74.5703 40.3633C72.5391 40.3633 70.918 39.7383 69.707 38.4883C68.5039 37.2305 67.9023 35.5469 67.9023 33.4375C67.9023 31.3281 68.5859 29.6602 69.9531 28.4336C71.1719 27.3398 72.6953 26.793 74.5234 26.793C76.1484 26.793 77.4961 27.1953 78.5664 28C79.6367 28.7969 80.1719 29.8828 80.1719 31.2578C80.1719 32.2109 79.875 32.9883 79.2812 33.5898C78.6953 34.1836 77.9219 34.4805 76.9609 34.4805C76.1797 34.4805 75.5273 34.2734 75.0039 33.8594C74.4883 33.4375 74.1836 32.8906 74.0898 32.2188C73.7461 32.2188 73.5742 32.3438 73.5742 32.5938C73.5742 33.1641 73.8555 33.6875 74.418 34.1641C75.0664 34.7266 75.8711 35.0078 76.832 35.0078C77.8008 35.0078 78.6016 34.8008 79.2344 34.3867C79.625 34.9883 79.8203 35.7188 79.8203 36.5781C79.8203 37.5781 79.3906 38.4336 78.5312 39.1445C77.5469 39.957 76.2266 40.3633 74.5703 40.3633ZM86.582 35.5938L86.0195 35.8398C86.0195 36.3633 86.1211 36.9219 86.3242 37.5156C86.4961 38.0781 86.7344 38.5781 87.0391 39.0156C86.2656 39.8125 85.1914 40.2109 83.8164 40.2109C83.0273 40.2109 82.3438 40.0039 81.7656 39.5898C81.0938 39.1211 80.7578 38.5 80.7578 37.7266V24.0508C81.1328 23.832 81.582 23.6523 82.1055 23.5117C82.6367 23.3711 83.1719 23.3008 83.7109 23.3008C84.6094 23.3008 85.3516 23.4766 85.9375 23.8281C86.6016 24.2422 86.9336 24.8359 86.9336 25.6094V26.8516C86.9336 27.8906 86.75 28.9062 86.3828 29.8984C86.3125 30 86.1875 30.1484 86.0078 30.3438C85.8281 30.5312 85.6836 30.7031 85.5742 30.8594C85.4727 31.0156 85.4219 31.1523 85.4219 31.2695C85.4219 31.3789 85.5156 31.4805 85.7031 31.5742C86.3125 31.0039 86.7891 30.3828 87.1328 29.7109C87.4844 29.0391 87.8047 28.1484 88.0938 27.0391C88.1953 27.0234 88.3125 27.0039 88.4453 26.9805C88.5781 26.957 88.7969 26.9219 89.1016 26.875C89.4141 26.8203 89.6328 26.793 89.7578 26.793C90.9609 26.793 91.8984 27.0703 92.5703 27.625C93.2422 28.1719 93.5781 28.9258 93.5781 29.8867C93.5781 30.8477 93.2734 31.6719 92.6641 32.3594C92.1016 32.9766 91.3711 33.4414 90.4727 33.7539C91.1914 34.1758 92.0977 34.4766 93.1914 34.6562C93.6133 35.4219 93.8242 36.2383 93.8242 37.1055C93.8242 37.9648 93.5508 38.6836 93.0039 39.2617C92.3945 39.8945 91.5508 40.2109 90.4727 40.2109C89.4023 40.2109 88.5195 39.8008 87.8242 38.9805C87.1367 38.1523 86.7227 37.0234 86.582 35.5938ZM95.0781 34.3398C95.7422 33.6758 96.5352 33.3438 97.457 33.3438C98.3789 33.3438 99.1797 33.6758 99.8594 34.3398C100.523 35.0195 100.855 35.8242 100.855 36.7539C100.855 37.6758 100.523 38.4688 99.8594 39.1328C99.1875 39.7891 98.3867 40.1172 97.457 40.1172C96.5273 40.1172 95.7305 39.7891 95.0664 39.1328C94.4102 38.4688 94.082 37.6758 94.082 36.7539C94.082 35.8242 94.4141 35.0195 95.0781 34.3398ZM107.688 34.457C107.688 34.5898 107.75 34.6797 107.875 34.7266C108.062 34.5156 108.328 34.332 108.672 34.1758C109.016 34.0117 109.402 33.9297 109.832 33.9297C110.652 33.9297 111.332 34.1719 111.871 34.6562C111.871 34.6562 111.898 34.6797 111.953 34.7266C112.055 34.6719 112.105 34.5742 112.105 34.4336C112.105 34.1914 111.914 33.9609 111.531 33.7422C111.086 33.5 110.516 33.3789 109.82 33.3789C109.633 33.3789 109.461 33.3945 109.305 33.4258V30.3672C109.305 30.0312 109.188 29.8633 108.953 29.8633C108.727 29.8633 108.613 30.0352 108.613 30.3789V33.5898C107.996 33.8398 107.688 34.1289 107.688 34.457ZM108.648 40.0117C107.297 40.0117 106.07 39.7578 104.969 39.25C103.867 38.7344 102.988 37.9414 102.332 36.8711C101.598 35.6602 101.23 34.1523 101.23 32.3477C101.23 30.543 101.605 29.0234 102.355 27.7891C103.027 26.6797 103.938 25.8555 105.086 25.3164C106.242 24.7773 107.484 24.5078 108.812 24.5078C111.234 24.5078 113.133 25.2188 114.508 26.6406C115.891 28.0547 116.582 29.9062 116.582 32.1953C116.582 33.5938 116.285 34.8203 115.691 35.875H117.391C117.672 36.7188 117.812 37.5156 117.812 38.2656C117.812 39.4062 117.496 40.3242 116.863 41.0195C116.23 41.7148 115.348 42.0625 114.215 42.0625C113.082 42.0625 112.141 41.6875 111.391 40.9375C110.648 40.1953 110.043 39.0195 109.574 37.4102H109.516C109.266 37.4102 109.141 37.5352 109.141 37.7852C109.141 38.2539 109.402 38.9727 109.926 39.9414C109.52 39.9883 109.094 40.0117 108.648 40.0117ZM124.316 34.8906C124.41 34.8906 124.512 34.8516 124.621 34.7734C124.543 34.5156 124.504 34.1133 124.504 33.5664V27.7773C125.332 27.2773 126.328 27.0273 127.492 27.0273C128.148 27.0273 128.723 27.1172 129.215 27.2969C129.715 27.4688 130.098 27.6992 130.363 27.9883V34.0938C130.363 35.2578 130.645 36.0156 131.207 36.3672C131.215 36.4062 131.219 36.4805 131.219 36.5898V36.8008C131.219 37.9414 130.918 38.8047 130.316 39.3906C129.77 39.9375 129.016 40.2109 128.055 40.2109C127.453 40.2109 126.906 40.0742 126.414 39.8008C125.93 39.5273 125.566 39.1289 125.324 38.6055C125.059 38.6055 124.926 38.7344 124.926 38.9922C124.926 39.1719 125.016 39.3516 125.195 39.5312C124.945 39.7344 124.645 39.8984 124.293 40.0234C123.941 40.1484 123.422 40.2109 122.734 40.2109C122.055 40.2109 121.391 40.0703 120.742 39.7891C119.938 39.4453 119.32 38.918 118.891 38.207C118.367 37.3633 118.105 36.293 118.105 34.9961V32.0547C117.707 31.3594 117.508 30.5938 117.508 29.7578C117.508 29.3281 117.562 28.8828 117.672 28.4219C117.781 27.9609 117.957 27.5508 118.199 27.1914H120.777C121.746 27.1914 122.504 27.4219 123.051 27.8828C123.605 28.3359 123.883 29.0273 123.883 29.957V33.7539C123.883 34.5117 124.027 34.8906 124.316 34.8906ZM137.77 29.4531V34.0938C137.77 35.2578 138.051 36.0156 138.613 36.3672C138.621 36.4062 138.625 36.4805 138.625 36.5898V36.8008C138.625 37.9492 138.312 38.8125 137.688 39.3906C137.109 39.9375 136.336 40.2109 135.367 40.2109C134.406 40.2109 133.613 39.9375 132.988 39.3906C132.199 38.6953 131.805 37.6797 131.805 36.3438V28.7266C131.945 28.625 132.098 28.543 132.262 28.4805C132.426 28.418 132.598 28.3398 132.777 28.2461C132.441 28.0742 132.137 27.7773 131.863 27.3555C131.59 26.9258 131.453 26.4258 131.453 25.8555C131.453 24.8711 131.777 24.0664 132.426 23.4414C133.074 22.8164 133.867 22.5039 134.805 22.5039C135.75 22.5039 136.539 22.8242 137.172 23.4648C137.812 24.0977 138.133 24.8945 138.133 25.8555C138.133 26.6289 137.891 27.3086 137.406 27.8945C136.922 28.4727 136.332 28.8359 135.637 28.9844C135.637 29.2812 135.75 29.4297 135.977 29.4297C136.375 29.4297 136.781 29.2734 137.195 28.9609C137.508 29.2031 137.699 29.3672 137.77 29.4531ZM150.473 30.1914C150.473 30.4023 150.441 30.7109 150.379 31.1172C150.316 31.5156 150.242 31.8359 150.156 32.0781C149.43 33.0781 148.559 33.9219 147.543 34.6094C146.543 34.6562 145.809 34.7578 145.34 34.9141C144.879 35.0703 144.648 35.2461 144.648 35.4414C144.648 35.5664 144.691 35.6602 144.777 35.7227C145.105 35.543 145.559 35.4023 146.137 35.3008C146.715 35.1914 147.27 35.1367 147.801 35.1367H150.062C150.266 35.4883 150.43 35.8828 150.555 36.3203C150.68 36.75 150.742 37.1289 150.742 37.457C150.742 38.3633 150.496 39.0352 150.004 39.4727C149.613 39.8242 149.078 40 148.398 40H140.043C139.348 39.2734 139 38.1406 139 36.6016C139 36.0391 139.102 35.3711 139.305 34.5977C140.016 33.8086 141.023 32.9141 142.328 31.9141C142.586 31.7109 142.875 31.4727 143.195 31.1992C143.148 31.0195 143.043 30.9297 142.879 30.9297C142.848 30.9297 142.793 30.9375 142.715 30.9531C142.488 31.0234 142.016 31.3945 141.297 32.0664H139.844C139.383 31.3086 139.152 30.4961 139.152 29.6289C139.152 29.082 139.238 28.5977 139.41 28.1758C139.582 27.7539 139.793 27.4258 140.043 27.1914H149.711C150.219 27.9336 150.473 28.9336 150.473 30.1914ZM152.008 34.3398C152.672 33.6758 153.465 33.3438 154.387 33.3438C155.309 33.3438 156.109 33.6758 156.789 34.3398C157.453 35.0195 157.785 35.8242 157.785 36.7539C157.785 37.6758 157.453 38.4688 156.789 39.1328C156.117 39.7891 155.316 40.1172 154.387 40.1172C153.457 40.1172 152.66 39.7891 151.996 39.1328C151.34 38.4688 151.012 37.6758 151.012 36.7539C151.012 35.8242 151.344 35.0195 152.008 34.3398Z" fill="white"/>
</svg>
